<svg width="256" height="256" viewBox="0 0 256 256" fill="none" xmlns="http://www.w3.org/2000/svg">
<path d="M128 142.508C128 133.537 123.193 125.253 115.404 120.802L46.058 81.176C43.8749 84.9296 42.6687 89.251 42.6687 93.745L42.6667 162.254C42.6667 171.225 47.4738 179.509 55.2632 183.96L115.597 218.436L115.603 218.44C119.444 220.633 123.722 221.73 128 221.73L128 142.508Z" fill="#AB3228"/>
<path d="M115.404 120.802C123.193 125.253 128 133.537 128 142.508L128 221.73C132.28 221.73 136.561 220.632 140.404 218.436L200.737 183.96C208.526 179.509 213.333 171.225 213.333 162.254L213.333 93.7462C213.333 84.7748 208.526 76.4912 200.737 72.0401L140.404 37.5639C132.718 33.172 123.282 33.172 115.597 37.5639L55.2652 72.0389L55.2631 72.0401C51.3766 74.2615 48.2326 77.437 46.058 81.176L115.404 120.802Z" fill="#E04F44"/>
<path d="M115.785 121.02C123.339 125.336 128 133.369 128 142.069L128 184.496C132.151 184.496 136.301 183.431 140.028 181.301L168.438 165.067C175.991 160.751 180.652 152.718 180.652 144.019L180.651 111.98C180.651 103.281 175.989 95.2482 168.436 90.932L140.028 74.6989C132.575 70.4401 123.425 70.4401 115.972 74.6989L87.5624 90.9308L87.5604 90.932C83.7916 93.086 80.7429 96.1653 78.6342 99.7911L115.785 121.02Z" fill="#AB3228"/>
<path d="M128 142.069C128 133.369 123.339 125.336 115.785 121.02L78.6342 99.7911C76.5172 103.431 75.3475 107.621 75.3475 111.979L75.3475 144.019C75.3475 152.718 80.009 160.751 87.5624 165.067L115.979 181.305C119.704 183.432 123.852 184.496 128 184.496L128 142.069Z" fill="#E04F44"/>
<path fill-rule="evenodd" clip-rule="evenodd" d="M102.327 107.69C100.936 106.869 99.2112 106.856 97.8082 107.657C96.4052 108.458 95.5392 109.95 95.5392 111.565L95.5392 144.582C95.5392 146.174 96.3804 147.648 97.7513 148.457L125.712 164.965C127.103 165.787 128.828 165.799 130.231 164.998C131.634 164.197 132.5 162.706 132.5 161.09L132.5 135.956L153.673 148.457C155.064 149.278 156.789 149.291 158.192 148.49C159.595 147.689 160.461 146.197 160.461 144.582L160.461 111.565C160.461 109.95 159.595 108.458 158.192 107.657C156.789 106.856 155.064 106.869 153.673 107.69L128 122.848L102.327 107.69ZM151.461 136.699L136.851 128.074L151.461 119.448L151.461 136.699ZM123.5 153.208L123.5 130.643L104.539 119.448L104.539 142.013L123.5 153.208Z" fill="white"/>
</svg>
